<svg width="219" height="46" viewBox="0 0 219 46" fill="none" xmlns="http://www.w3.org/2000/svg">
<path d="M11.7982 30.4642L10.0805 30.4585C7.7687 30.5391 7.84111 33.8469 10.2018 33.8547L45.1791 33.9609L60.5602 4.21178L73.5953 4.2549C75.8917 4.26249 75.805 0.934749 73.704 0.927799L58.3038 0.876856L50.9986 14.992L51.7577 8.11353L0.442421 7.94378L3.34355 13.7004L23.3228 13.7665L24.5562 16.244L4.59661 16.178L5.92774 18.8231L25.6126 18.8882L26.8459 21.3707L7.18078 21.3057L8.51191 23.9502L27.9023 24.0144L29.1357 26.492L9.76498 26.4279L11.7982 30.4642Z" fill="#990000"/>
<mask id="mask0_2_58" style="mask-type:luminance" maskUnits="userSpaceOnUse" x="0" y="7" width="39" height="27">
<path d="M0.423035 7.92647L38.4673 8.05232L38.3816 33.9778L0.337274 33.852L0.423035 7.92647Z" fill="white"/>
</mask>
<g mask="url(#mask0_2_58)">
<mask id="mask1_2_58" style="mask-type:luminance" maskUnits="userSpaceOnUse" x="0" y="7" width="39" height="27">
<path d="M11.7982 30.4642L10.0804 30.4585C7.76866 30.5391 7.84107 33.8469 10.2018 33.8547L38.3575 33.9384C36.4106 23.076 29.963 13.7643 21.0107 8.01181L0.442383 7.94377L3.34351 13.7004L23.3227 13.7665L24.5562 16.244L4.59657 16.178L5.9277 18.8231L25.6126 18.8882L26.8459 21.3707L7.18075 21.3057L8.51187 23.9502L27.9022 24.0144L29.1357 26.492L9.76494 26.4279L11.7982 30.4642Z" fill="white"/>
</mask>
<g mask="url(#mask1_2_58)">
<mask id="mask2_2_58" style="mask-type:luminance" maskUnits="userSpaceOnUse" x="0" y="7" width="39" height="27">
<path d="M11.7982 30.4642L10.0804 30.4585C7.76866 30.5391 7.84107 33.8469 10.2018 33.8547L38.3575 33.9384C36.4106 23.076 29.963 13.7643 21.0107 8.01181L0.442383 7.94377L3.34351 13.7004L23.3227 13.7665L24.5562 16.244L4.59657 16.178L5.9277 18.8231L25.6126 18.8882L26.8459 21.3707L7.18075 21.3057L8.51187 23.9502L27.9022 24.0144L29.1357 26.492L9.76494 26.4279L11.7982 30.4642Z" fill="white"/>
</mask>
<g mask="url(#mask2_2_58)">
<path d="M18.2181 52.8513L-12.5163 20.1074L20.5818 -10.9596L51.3161 21.7844L18.2181 52.8513Z" fill="url(#paint0_linear_2_58)"/>
</g>
</g>
</g>
<path d="M21.2545 35.1184C18.5408 35.1094 16.3348 37.3009 16.3259 40.0151C16.3169 42.724 18.5083 44.9299 21.222 44.9388C23.931 44.9478 26.137 42.7565 26.146 40.0476C26.155 37.3333 23.9635 35.1273 21.2545 35.1184ZM35.4919 35.1655C32.7779 35.1565 30.5722 37.3479 30.5632 40.0622C30.5542 42.7711 32.7454 44.977 35.4594 44.9859C38.1736 44.9949 40.3791 42.8036 40.3881 40.0947C40.3971 37.3804 38.2061 35.1745 35.4919 35.1655Z" fill="#990000"/>
<path d="M35.4809 38.5123C34.6171 38.5095 33.9179 39.2093 33.915 40.068C33.9122 40.9319 34.6068 41.6357 35.4705 41.6386C36.3345 41.6414 37.0337 40.9423 37.0365 40.0783C37.0394 39.2196 36.3448 38.5152 35.4809 38.5123ZM21.2435 38.4652C20.3801 38.4624 19.6758 39.1622 19.6729 40.0209C19.6701 40.8848 20.3697 41.5886 21.2332 41.5915C22.0971 41.5943 22.7963 40.8952 22.7992 40.0312C22.802 39.1725 22.1074 38.4681 21.2435 38.4652Z" fill="white"/>
<path d="M60.5256 31L62.9403 16.4545H72.4006L72.0312 18.6634H65.206L64.5526 22.6122H70.8878L70.5185 24.821H64.1832L63.5298 28.7912H70.4119L70.0426 31H60.5256ZM77.5462 16.4545L75.1314 31H72.5604L74.9751 16.4545H77.5462ZM82.5763 31.2131C81.4826 31.2131 80.5782 30.9858 79.8633 30.5312C79.1483 30.072 78.6464 29.4233 78.3576 28.5852C78.0735 27.7424 78.0262 26.7505 78.2156 25.6094C78.4002 24.4872 78.7766 23.5024 79.3448 22.6548C79.913 21.8026 80.6232 21.1397 81.4755 20.6662C82.3325 20.188 83.2795 19.9489 84.3164 19.9489C84.9888 19.9489 85.6067 20.0578 86.1701 20.2756C86.7335 20.4886 87.2094 20.8201 87.5977 21.2699C87.9859 21.7197 88.2534 22.2926 88.4002 22.9886C88.547 23.6799 88.5399 24.5038 88.3789 25.4602L88.2582 26.2486H79.3093L79.5863 24.5156H86.0636C86.1488 24.0232 86.1204 23.5852 85.9783 23.2017C85.8363 22.8134 85.5996 22.508 85.2681 22.2855C84.9367 22.063 84.5224 21.9517 84.0252 21.9517C83.5186 21.9517 83.0451 22.0819 82.6048 22.3423C82.1692 22.598 81.8022 22.9295 81.5039 23.3366C81.2056 23.7438 81.0162 24.1723 80.9357 24.6222L80.6445 26.2841C80.5404 26.9659 80.564 27.5223 80.7156 27.9531C80.8671 28.384 81.1322 28.7012 81.511 28.9048C81.8898 29.1084 82.368 29.2102 82.9457 29.2102C83.3245 29.2102 83.6748 29.1581 83.9968 29.054C84.3188 28.9498 84.6052 28.7936 84.8562 28.5852C85.1119 28.3722 85.3249 28.1117 85.4954 27.804L87.8462 28.0739C87.5858 28.7083 87.2047 29.2623 86.7028 29.7358C86.2009 30.2045 85.5996 30.5691 84.8988 30.8295C84.2028 31.0852 83.4286 31.2131 82.5763 31.2131ZM93.7127 35.3182C92.7847 35.3182 92.0105 35.1927 91.3903 34.9418C90.77 34.6955 90.2918 34.3641 89.9556 33.9474C89.6194 33.5308 89.4111 33.0691 89.3306 32.5625L91.7454 32.0014C91.8164 32.2145 91.93 32.4252 92.0863 32.6335C92.2473 32.8466 92.484 33.0218 92.7965 33.1591C93.109 33.3011 93.5257 33.3722 94.0465 33.3722C94.7757 33.3722 95.4125 33.1946 95.957 32.8395C96.5015 32.4844 96.8377 31.9067 96.9656 31.1065L97.2923 29.0398H97.1644C96.994 29.3049 96.7596 29.5772 96.4613 29.8565C96.1677 30.1359 95.796 30.3703 95.3462 30.5597C94.9012 30.7491 94.3661 30.8438 93.7411 30.8438C92.9031 30.8438 92.1763 30.6473 91.5607 30.2543C90.9452 29.8565 90.5025 29.2647 90.2326 28.4787C89.9674 27.688 89.9343 26.6984 90.1332 25.5099C90.3273 24.312 90.6919 23.3011 91.2269 22.4773C91.7667 21.6487 92.413 21.0213 93.1658 20.5952C93.9187 20.1643 94.7141 19.9489 95.5522 19.9489C96.1914 19.9489 96.7004 20.0578 97.0792 20.2756C97.458 20.4886 97.7444 20.7467 97.9386 21.0497C98.1327 21.348 98.2747 21.6297 98.3647 21.8949H98.4996L98.7979 20.0909H101.333L99.5011 31.1776C99.3496 32.1103 99.0015 32.8821 98.457 33.4929C97.9125 34.1084 97.2283 34.5653 96.4045 34.8636C95.5853 35.1667 94.6881 35.3182 93.7127 35.3182ZM94.7638 28.8267C95.3084 28.8267 95.796 28.6941 96.2269 28.429C96.6578 28.1638 97.0176 27.7827 97.3065 27.2855C97.5953 26.7884 97.7965 26.1918 97.9102 25.4957C98.0238 24.8092 98.0191 24.2079 97.896 23.6918C97.7776 23.1757 97.5479 22.7756 97.207 22.4915C96.8661 22.2027 96.421 22.0582 95.8718 22.0582C95.2989 22.0582 94.797 22.2074 94.3661 22.5057C93.94 22.804 93.5896 23.2135 93.315 23.7344C93.0451 24.2505 92.8557 24.8376 92.7468 25.4957C92.6426 26.1634 92.6426 26.7481 92.7468 27.25C92.8557 27.7472 93.0759 28.1354 93.4073 28.4148C93.7435 28.6894 94.1957 28.8267 94.7638 28.8267ZM105.261 31.2202C104.57 31.2202 103.968 31.0971 103.457 30.8509C102.946 30.5999 102.569 30.2306 102.328 29.7429C102.091 29.2552 102.032 28.6539 102.15 27.9389C102.254 27.3234 102.453 26.8144 102.747 26.4119C103.045 26.0095 103.41 25.6875 103.841 25.446C104.276 25.1998 104.75 25.0152 105.261 24.892C105.777 24.7689 106.303 24.679 106.838 24.6222C107.491 24.5559 108.019 24.4943 108.422 24.4375C108.829 24.3807 109.134 24.2955 109.338 24.1818C109.541 24.0634 109.664 23.8835 109.707 23.642V23.5994C109.792 23.0644 109.707 22.6501 109.451 22.3565C109.196 22.063 108.77 21.9162 108.173 21.9162C107.548 21.9162 107.022 22.0535 106.596 22.3281C106.17 22.6027 105.86 22.9271 105.666 23.3011L103.336 22.9602C103.63 22.2973 104.032 21.7434 104.544 21.2983C105.055 20.8485 105.645 20.5123 106.312 20.2898C106.984 20.0625 107.702 19.9489 108.464 19.9489C108.985 19.9489 109.494 20.0104 109.991 20.1335C110.493 20.2566 110.936 20.4602 111.319 20.7443C111.708 21.0237 111.992 21.4048 112.172 21.8878C112.356 22.3707 112.387 22.9744 112.264 23.6989L111.049 31H108.578L108.833 29.5014H108.748C108.545 29.8045 108.279 30.0885 107.953 30.3537C107.626 30.6141 107.238 30.8248 106.788 30.9858C106.338 31.142 105.829 31.2202 105.261 31.2202ZM106.234 29.331C106.75 29.331 107.214 29.2292 107.626 29.0256C108.038 28.8172 108.377 28.5426 108.642 28.2017C108.907 27.8608 109.073 27.4891 109.139 27.0866L109.352 25.8011C109.257 25.8674 109.11 25.929 108.912 25.9858C108.713 26.0426 108.49 26.0923 108.244 26.1349C108.002 26.1776 107.763 26.2154 107.527 26.2486C107.29 26.2817 107.086 26.3101 106.916 26.3338C106.523 26.3859 106.163 26.4711 105.836 26.5895C105.514 26.7079 105.247 26.8736 105.034 27.0866C104.825 27.295 104.695 27.5649 104.643 27.8963C104.567 28.3651 104.679 28.7225 104.977 28.9688C105.275 29.2102 105.694 29.331 106.234 29.331ZM117.271 24.608L116.22 31H113.642L115.46 20.0909H117.924L117.612 21.9446H117.747C118.088 21.3338 118.566 20.8485 119.181 20.4886C119.797 20.1288 120.514 19.9489 121.333 19.9489C122.077 19.9489 122.702 20.1098 123.208 20.4318C123.715 20.7491 124.075 21.2154 124.288 21.831C124.501 22.4418 124.534 23.1828 124.387 24.054L123.223 31H120.652L121.738 24.4517C121.861 23.7273 121.769 23.1591 121.461 22.7472C121.158 22.3305 120.671 22.1222 119.998 22.1222C119.548 22.1222 119.134 22.2216 118.755 22.4205C118.377 22.6146 118.057 22.8963 117.797 23.2656C117.541 23.6349 117.366 24.0824 117.271 24.608ZM130.552 31.2131C129.463 31.2131 128.568 30.974 127.868 30.4957C127.167 30.0175 126.677 29.357 126.397 28.5142C126.123 27.6667 126.078 26.6913 126.262 25.5881C126.442 24.4801 126.814 23.5024 127.377 22.6548C127.946 21.8026 128.661 21.1397 129.522 20.6662C130.384 20.188 131.348 19.9489 132.413 19.9489C133.298 19.9489 134.054 20.1122 134.679 20.4389C135.308 20.7609 135.777 21.2178 136.085 21.8097C136.397 22.3968 136.518 23.0833 136.447 23.8693H133.983C133.973 23.3437 133.81 22.9058 133.493 22.5554C133.175 22.2003 132.711 22.0227 132.1 22.0227C131.57 22.0227 131.083 22.1648 130.637 22.4489C130.192 22.7282 129.816 23.1307 129.508 23.6562C129.2 24.1818 128.987 24.8116 128.869 25.5455C128.746 26.2888 128.748 26.928 128.876 27.4631C129.009 27.9934 129.248 28.4029 129.593 28.6918C129.944 28.9759 130.386 29.1179 130.922 29.1179C131.3 29.1179 131.653 29.0469 131.98 28.9048C132.306 28.758 132.593 28.5473 132.839 28.2727C133.09 27.9981 133.287 27.6643 133.429 27.2713H135.886C135.692 28.0431 135.346 28.7273 134.849 29.3239C134.357 29.9157 133.746 30.3797 133.017 30.7159C132.288 31.0473 131.466 31.2131 130.552 31.2131ZM142.166 31.2131C141.072 31.2131 140.168 30.9858 139.453 30.5312C138.738 30.072 138.236 29.4233 137.947 28.5852C137.663 27.7424 137.616 26.7505 137.805 25.6094C137.99 24.4872 138.366 23.5024 138.935 22.6548C139.503 21.8026 140.213 21.1397 141.065 20.6662C141.922 20.188 142.869 19.9489 143.906 19.9489C144.579 19.9489 145.196 20.0578 145.76 20.2756C146.323 20.4886 146.799 20.8201 147.188 21.2699C147.576 21.7197 147.843 22.2926 147.99 22.9886C148.137 23.6799 148.13 24.5038 147.969 25.4602L147.848 26.2486H138.899L139.176 24.5156H145.653C145.739 24.0232 145.71 23.5852 145.568 23.2017C145.426 22.8134 145.189 22.508 144.858 22.2855C144.527 22.063 144.112 21.9517 143.615 21.9517C143.108 21.9517 142.635 22.0819 142.195 22.3423C141.759 22.598 141.392 22.9295 141.094 23.3366C140.795 23.7438 140.606 24.1723 140.526 24.6222L140.234 26.2841C140.13 26.9659 140.154 27.5223 140.305 27.9531C140.457 28.384 140.722 28.7012 141.101 28.9048C141.48 29.1084 141.958 29.2102 142.536 29.2102C142.914 29.2102 143.265 29.1581 143.587 29.054C143.909 28.9498 144.195 28.7936 144.446 28.5852C144.702 28.3722 144.915 28.1117 145.085 27.804L147.436 28.0739C147.176 28.7083 146.795 29.2623 146.293 29.7358C145.791 30.2045 145.189 30.5691 144.489 30.8295C143.793 31.0852 143.018 31.2131 142.166 31.2131Z" fill="#990000"/>
<path d="M149.354 31L151.768 16.4545H161.229L160.859 18.6634H154.034L153.381 22.6122H159.716L159.347 24.821H153.011L152.358 28.7912H159.24L158.871 31H149.354ZM161.396 31L163.214 20.0909H165.678L165.366 21.9446H165.501C165.832 21.3196 166.289 20.8319 166.871 20.4815C167.454 20.1264 168.11 19.9489 168.839 19.9489C169.573 19.9489 170.165 20.1288 170.614 20.4886C171.069 20.8437 171.348 21.3291 171.452 21.9446H171.566C171.907 21.3338 172.395 20.8485 173.029 20.4886C173.668 20.1288 174.386 19.9489 175.181 19.9489C176.175 19.9489 176.938 20.2661 177.468 20.9006C177.998 21.535 178.162 22.4607 177.958 23.6776L176.737 31H174.165L175.33 24.0753C175.434 23.3982 175.33 22.9034 175.018 22.5909C174.71 22.2737 174.296 22.1151 173.775 22.1151C173.155 22.1151 172.638 22.3068 172.227 22.6903C171.819 23.0739 171.568 23.5758 171.474 24.196L170.33 31H167.809L168.988 23.9688C169.073 23.4053 168.974 22.9555 168.69 22.6193C168.41 22.2831 167.998 22.1151 167.454 22.1151C167.085 22.1151 166.732 22.2098 166.396 22.3991C166.059 22.5885 165.773 22.8537 165.536 23.1946C165.304 23.5308 165.153 23.9214 165.082 24.3665L163.974 31H161.396ZM178.663 35.0909L181.177 20.0909H183.706L183.414 21.8949H183.564C183.734 21.6297 183.964 21.348 184.252 21.0497C184.546 20.7467 184.918 20.4886 185.368 20.2756C185.817 20.0578 186.364 19.9489 187.008 19.9489C187.846 19.9489 188.568 20.1643 189.174 20.5952C189.78 21.0213 190.214 21.6534 190.474 22.4915C190.739 23.3248 190.772 24.3475 190.574 25.5597C190.375 26.7576 190.008 27.7756 189.473 28.6136C188.938 29.4517 188.296 30.0909 187.548 30.5312C186.8 30.9716 185.997 31.1918 185.14 31.1918C184.515 31.1918 184.011 31.0876 183.627 30.8793C183.249 30.6709 182.962 30.42 182.768 30.1264C182.574 29.8281 182.43 29.5464 182.335 29.2812H182.221L181.255 35.0909H178.663ZM182.789 25.5455C182.676 26.2509 182.673 26.8688 182.782 27.3991C182.896 27.9295 183.121 28.3437 183.457 28.642C183.793 28.9356 184.234 29.0824 184.778 29.0824C185.346 29.0824 185.843 28.9309 186.27 28.6278C186.7 28.3201 187.058 27.901 187.342 27.3707C187.631 26.8357 187.834 26.2273 187.953 25.5455C188.062 24.8684 188.062 24.267 187.953 23.7415C187.844 23.2159 187.624 22.804 187.292 22.5057C186.961 22.2074 186.511 22.0582 185.943 22.0582C185.389 22.0582 184.894 22.2027 184.458 22.4915C184.028 22.7803 183.67 23.1851 183.386 23.706C183.102 24.2268 182.903 24.84 182.789 25.5455ZM191.857 31L193.675 20.0909H196.246L194.428 31H191.857ZM195.337 18.5284C194.925 18.5284 194.585 18.3911 194.315 18.1165C194.045 17.8419 193.926 17.5128 193.96 17.1293C193.993 16.7457 194.165 16.4167 194.478 16.142C194.795 15.8674 195.157 15.7301 195.565 15.7301C195.977 15.7301 196.315 15.8674 196.58 16.142C196.85 16.4167 196.969 16.7457 196.935 17.1293C196.907 17.5128 196.734 17.8419 196.417 18.1165C196.104 18.3911 195.745 18.5284 195.337 18.5284ZM197.072 31L198.89 20.0909H201.383L201.078 21.9091H201.191C201.49 21.2794 201.911 20.794 202.456 20.4531C203.005 20.1075 203.592 19.9347 204.217 19.9347C204.364 19.9347 204.522 19.9418 204.693 19.956C204.863 19.9654 205.01 19.982 205.133 20.0057L204.735 22.3707C204.627 22.3329 204.456 22.2997 204.224 22.2713C203.997 22.2382 203.772 22.2216 203.549 22.2216C203.081 22.2216 202.645 22.3234 202.243 22.527C201.845 22.7259 201.509 23.0028 201.234 23.358C200.959 23.7131 200.782 24.1226 200.701 24.5866L199.643 31H197.072ZM209.373 31.2131C208.279 31.2131 207.375 30.9858 206.66 30.5312C205.945 30.072 205.443 29.4233 205.154 28.5852C204.87 27.7424 204.823 26.7505 205.012 25.6094C205.197 24.4872 205.574 23.5024 206.142 22.6548C206.71 21.8026 207.42 21.1397 208.272 20.6662C209.129 20.188 210.076 19.9489 211.113 19.9489C211.786 19.9489 212.404 20.0578 212.967 20.2756C213.53 20.4886 214.006 20.8201 214.395 21.2699C214.783 21.7197 215.05 22.2926 215.197 22.9886C215.344 23.6799 215.337 24.5038 215.176 25.4602L215.055 26.2486H206.106L206.383 24.5156H212.86C212.946 24.0232 212.917 23.5852 212.775 23.2017C212.633 22.8134 212.396 22.508 212.065 22.2855C211.734 22.063 211.319 21.9517 210.822 21.9517C210.315 21.9517 209.842 22.0819 209.402 22.3423C208.966 22.598 208.599 22.9295 208.301 23.3366C208.002 23.7438 207.813 24.1723 207.733 24.6222L207.441 26.2841C207.337 26.9659 207.361 27.5223 207.512 27.9531C207.664 28.384 207.929 28.7012 208.308 28.9048C208.687 29.1084 209.165 29.2102 209.743 29.2102C210.121 29.2102 210.472 29.1581 210.794 29.054C211.116 28.9498 211.402 28.7936 211.653 28.5852C211.909 28.3722 212.122 28.1117 212.292 27.804L214.643 28.0739C214.383 28.7083 214.002 29.2623 213.5 29.7358C212.998 30.2045 212.396 30.5691 211.696 30.8295C211 31.0852 210.225 31.2131 209.373 31.2131Z" fill="#FF6600"/>
<defs>
<linearGradient id="paint0_linear_2_58" x1="2.84846" y1="36.4767" x2="35.9465" y2="5.40982" gradientUnits="userSpaceOnUse">
<stop stop-color="#990000"/>
<stop offset="0.25" stop-color="#990000"/>
<stop offset="0.253906" stop-color="#9A0100"/>
<stop offset="0.257812" stop-color="#9A0100"/>
<stop offset="0.261719" stop-color="#9B0200"/>
<stop offset="0.265625" stop-color="#9B0200"/>
<stop offset="0.269531" stop-color="#9C0300"/>
<stop offset="0.273438" stop-color="#9C0300"/>
<stop offset="0.277344" stop-color="#9D0400"/>
<stop offset="0.28125" stop-color="#9D0400"/>
<stop offset="0.285156" stop-color="#9E0500"/>
<stop offset="0.289062" stop-color="#9E0500"/>
<stop offset="0.292969" stop-color="#9F0600"/>
<stop offset="0.296875" stop-color="#9F0600"/>
<stop offset="0.300781" stop-color="#A00700"/>
<stop offset="0.304688" stop-color="#A00700"/>
<stop offset="0.308594" stop-color="#A10800"/>
<stop offset="0.3125" stop-color="#A10800"/>
<stop offset="0.316406" stop-color="#A20900"/>
<stop offset="0.320312" stop-color="#A20900"/>
<stop offset="0.324219" stop-color="#A30A00"/>
<stop offset="0.328125" stop-color="#A30A00"/>
<stop offset="0.332031" stop-color="#A40B00"/>
<stop offset="0.335938" stop-color="#A40B00"/>
<stop offset="0.339844" stop-color="#A50C00"/>
<stop offset="0.34375" stop-color="#A50C00"/>
<stop offset="0.347656" stop-color="#A60D00"/>
<stop offset="0.351562" stop-color="#A60D00"/>
<stop offset="0.355469" stop-color="#A70E00"/>
<stop offset="0.359375" stop-color="#A80F00"/>
<stop offset="0.363281" stop-color="#A80F00"/>
<stop offset="0.367187" stop-color="#A91000"/>
<stop offset="0.371094" stop-color="#A91000"/>
<stop offset="0.375" stop-color="#AA1100"/>
<stop offset="0.378906" stop-color="#AA1100"/>
<stop offset="0.382812" stop-color="#AB1200"/>
<stop offset="0.386719" stop-color="#AB1200"/>
<stop offset="0.390625" stop-color="#AC1300"/>
<stop offset="0.394531" stop-color="#AC1300"/>
<stop offset="0.398437" stop-color="#AD1400"/>
<stop offset="0.402344" stop-color="#AD1400"/>
<stop offset="0.40625" stop-color="#AE1500"/>
<stop offset="0.410156" stop-color="#AE1500"/>
<stop offset="0.414062" stop-color="#AF1600"/>
<stop offset="0.417969" stop-color="#AF1600"/>
<stop offset="0.421875" stop-color="#B01700"/>
<stop offset="0.425781" stop-color="#B01700"/>
<stop offset="0.429688" stop-color="#B11800"/>
<stop offset="0.433594" stop-color="#B11800"/>
<stop offset="0.4375" stop-color="#B21900"/>
<stop offset="0.441406" stop-color="#B21900"/>
<stop offset="0.445312" stop-color="#B31A00"/>
<stop offset="0.449219" stop-color="#B31A00"/>
<stop offset="0.453125" stop-color="#B41B00"/>
<stop offset="0.457031" stop-color="#B41B00"/>
<stop offset="0.460938" stop-color="#B51C00"/>
<stop offset="0.464844" stop-color="#B61D00"/>
<stop offset="0.46875" stop-color="#B61D00"/>
<stop offset="0.472656" stop-color="#B71E00"/>
<stop offset="0.476562" stop-color="#B71E00"/>
<stop offset="0.480469" stop-color="#B81F00"/>
<stop offset="0.484375" stop-color="#B81F00"/>
<stop offset="0.488281" stop-color="#B92000"/>
<stop offset="0.492187" stop-color="#B92000"/>
<stop offset="0.496094" stop-color="#BA2100"/>
<stop offset="0.5" stop-color="#BA2100"/>
<stop offset="0.503906" stop-color="#BB2200"/>
<stop offset="0.507812" stop-color="#BB2200"/>
<stop offset="0.511719" stop-color="#BC2300"/>
<stop offset="0.515625" stop-color="#BC2300"/>
<stop offset="0.519531" stop-color="#BD2400"/>
<stop offset="0.523438" stop-color="#BD2400"/>
<stop offset="0.527344" stop-color="#BE2500"/>
<stop offset="0.53125" stop-color="#BE2500"/>
<stop offset="0.535156" stop-color="#BF2600"/>
<stop offset="0.539062" stop-color="#BF2600"/>
<stop offset="0.542969" stop-color="#C02700"/>
<stop offset="0.546875" stop-color="#C02700"/>
<stop offset="0.550781" stop-color="#C12800"/>
<stop offset="0.554688" stop-color="#C12800"/>
<stop offset="0.558594" stop-color="#C22900"/>
<stop offset="0.5625" stop-color="#C22900"/>
<stop offset="0.566406" stop-color="#C32A00"/>
<stop offset="0.570312" stop-color="#C42B00"/>
<stop offset="0.574219" stop-color="#C42B00"/>
<stop offset="0.578125" stop-color="#C52C00"/>
<stop offset="0.582031" stop-color="#C52C00"/>
<stop offset="0.585938" stop-color="#C62D00"/>
<stop offset="0.589844" stop-color="#C62D00"/>
<stop offset="0.59375" stop-color="#C72E00"/>
<stop offset="0.597656" stop-color="#C72E00"/>
<stop offset="0.601562" stop-color="#C82F00"/>
<stop offset="0.605469" stop-color="#C82F00"/>
<stop offset="0.609375" stop-color="#C93000"/>
<stop offset="0.613281" stop-color="#C93000"/>
<stop offset="0.617188" stop-color="#CA3100"/>
<stop offset="0.621094" stop-color="#CA3100"/>
<stop offset="0.625" stop-color="#CB3200"/>
<stop offset="0.628906" stop-color="#CB3200"/>
<stop offset="0.632812" stop-color="#CC3300"/>
<stop offset="0.636719" stop-color="#CD3400"/>
<stop offset="0.640625" stop-color="#CF3600"/>
<stop offset="0.644531" stop-color="#D13800"/>
<stop offset="0.648437" stop-color="#D23900"/>
<stop offset="0.652344" stop-color="#D43B00"/>
<stop offset="0.65625" stop-color="#D63D00"/>
<stop offset="0.660156" stop-color="#D73E00"/>
<stop offset="0.664062" stop-color="#D94000"/>
<stop offset="0.667969" stop-color="#DB4200"/>
<stop offset="0.671875" stop-color="#DD4400"/>
<stop offset="0.675781" stop-color="#DE4500"/>
<stop offset="0.679688" stop-color="#E04700"/>
<stop offset="0.683594" stop-color="#E24900"/>
<stop offset="0.6875" stop-color="#E34A00"/>
<stop offset="0.691406" stop-color="#E54C00"/>
<stop offset="0.695312" stop-color="#E74E00"/>
<stop offset="0.699219" stop-color="#E95000"/>
<stop offset="0.703125" stop-color="#EA5100"/>
<stop offset="0.707031" stop-color="#EC5300"/>
<stop offset="0.710938" stop-color="#EE5500"/>
<stop offset="0.714844" stop-color="#F05700"/>
<stop offset="0.71875" stop-color="#F15800"/>
<stop offset="0.722656" stop-color="#F35A00"/>
<stop offset="0.726562" stop-color="#F55C00"/>
<stop offset="0.730469" stop-color="#F65D00"/>
<stop offset="0.734375" stop-color="#F85F00"/>
<stop offset="0.738281" stop-color="#FA6100"/>
<stop offset="0.742188" stop-color="#FC6300"/>
<stop offset="0.746094" stop-color="#FD6400"/>
<stop offset="0.75" stop-color="#FF6600"/>
<stop offset="1" stop-color="#FF6600"/>
</linearGradient>
</defs>
</svg>
